<?xml version="1.0" encoding="utf-8"?>
<!-- Generator: Adobe Illustrator 26.4.1, SVG Export Plug-In . SVG Version: 6.00 Build 0)  -->
<svg version="1.1" id="Livello_2_00000120539737861201033020000015522288269569673147_"
	 xmlns="http://www.w3.org/2000/svg" xmlns:xlink="http://www.w3.org/1999/xlink" x="0px" y="0px" viewBox="0 0 56.7 56.7"
	 style="enable-background:new 0 0 56.7 56.7;" xml:space="preserve">
<style type="text/css">
	.st0{fill:#0FEA03;}
</style>
<g>
	<path class="st0" d="M28.2,38.3h0.3c5.2,0,9.4-4.2,9.4-9.4V15.1c0-5.2-4.2-9.4-9.4-9.4h-0.3c-5.2,0-9.4,4.2-9.4,9.4v13.8
		C18.8,34.1,23,38.3,28.2,38.3L28.2,38.3z"/>
	<path class="st0" d="M27.4,45.1v4.1h-9.7c-0.5,0-1,0.4-1,1c0,0.5,0.4,1,1,1H39c0.5,0,1-0.4,1-1c0-0.5-0.4-1-1-1h-9.7v-4.1
		c7.5-0.5,13.5-6.6,13.5-14c0-0.5-0.4-1-1-1c-0.5,0-1,0.4-1,1c0,6.6-5.6,12.1-12.5,12.1s-12.5-5.4-12.5-12.1c0-0.5-0.4-1-1-1
		s-1,0.4-1,1C13.9,38.5,19.9,44.6,27.4,45.1L27.4,45.1L27.4,45.1z"/>
</g>
</svg>
